<?xml version="1.0" encoding="UTF-8" standalone="no"?>
<!-- Created with Inkscape (http://www.inkscape.org/) -->

<svg
   width="1920"
   height="1080"
   viewBox="0 0 507.99999 285.75"
   version="1.1"
   id="svg5"
   xml:space="preserve"
   sodipodi:docname="Background HD.svg"
   inkscape:version="1.3 (0e150ed6c4, 2023-07-21)"
   inkscape:export-filename="..\..\PNG\Background\1920\Background 7png.png"
   inkscape:export-xdpi="96"
   inkscape:export-ydpi="96"
   xmlns:inkscape="http://www.inkscape.org/namespaces/inkscape"
   xmlns:sodipodi="http://sodipodi.sourceforge.net/DTD/sodipodi-0.dtd"
   xmlns:xlink="http://www.w3.org/1999/xlink"
   xmlns="http://www.w3.org/2000/svg"
   xmlns:svg="http://www.w3.org/2000/svg"><sodipodi:namedview
     id="namedview7"
     pagecolor="#ffffff"
     bordercolor="#000000"
     borderopacity="1"
     inkscape:showpageshadow="false"
     inkscape:pageopacity="0"
     inkscape:pagecheckerboard="false"
     inkscape:deskcolor="#606060"
     inkscape:document-units="px"
     showgrid="false"
     inkscape:zoom="0.33916667"
     inkscape:cx="925.79853"
     inkscape:cy="355.28256"
     inkscape:window-width="1920"
     inkscape:window-height="1017"
     inkscape:window-x="-8"
     inkscape:window-y="-8"
     inkscape:window-maximized="1"
     inkscape:current-layer="layer1-27"
     showguides="true"
     showborder="true"
     inkscape:lockguides="false" /><defs
     id="defs2"><linearGradient
       inkscape:collect="always"
       id="linearGradient2154"><stop
         style="stop-color:#aee0f9;stop-opacity:1;"
         offset="0"
         id="stop2152" /><stop
         style="stop-color:#ffdfb2;stop-opacity:1;"
         offset="1"
         id="stop2150" /></linearGradient><inkscape:path-effect
       effect="spiro"
       id="path-effect3103"
       is_visible="true"
       lpeversion="1" /><inkscape:path-effect
       effect="spiro"
       id="path-effect3092"
       is_visible="true"
       lpeversion="1" /><inkscape:path-effect
       effect="spiro"
       id="path-effect3031"
       is_visible="true"
       lpeversion="1" /><inkscape:path-effect
       effect="spiro"
       id="path-effect2893"
       is_visible="true"
       lpeversion="1" /><inkscape:perspective
       sodipodi:type="inkscape:persp3d"
       inkscape:vp_x="0 : -214.25 : 1"
       inkscape:vp_y="0 : 1000 : 0"
       inkscape:vp_z="999.99998 : -214.25 : 1"
       inkscape:persp3d-origin="499.99999 : -380.91667 : 1"
       id="perspective1069" /><linearGradient
       id="linearGradient10878"
       inkscape:swatch="solid"><stop
         style="stop-color:#000000;stop-opacity:1;"
         offset="0"
         id="stop10876" /></linearGradient><linearGradient
       id="linearGradient10872"
       inkscape:swatch="solid"><stop
         style="stop-color:#000000;stop-opacity:1;"
         offset="0"
         id="stop10870" /></linearGradient><linearGradient
       id="linearGradient10866"
       inkscape:swatch="solid"><stop
         style="stop-color:#000000;stop-opacity:1;"
         offset="0"
         id="stop10864" /></linearGradient><inkscape:path-effect
       effect="powerstroke"
       id="path-effect3908"
       is_visible="true"
       lpeversion="1"
       offset_points="0,10"
       not_jump="false"
       sort_points="true"
       interpolator_type="CubicBezierJohan"
       interpolator_beta="0.2"
       start_linecap_type="zerowidth"
       linejoin_type="extrp_arc"
       miter_limit="4"
       scale_width="1"
       end_linecap_type="zerowidth" /><inkscape:path-effect
       effect="powerstroke"
       id="path-effect3865"
       is_visible="true"
       lpeversion="1"
       offset_points="0,10"
       not_jump="false"
       sort_points="true"
       interpolator_type="CubicBezierJohan"
       interpolator_beta="0.2"
       start_linecap_type="zerowidth"
       linejoin_type="extrp_arc"
       miter_limit="4"
       scale_width="1"
       end_linecap_type="zerowidth" /><inkscape:path-effect
       effect="powerstroke"
       id="path-effect3605"
       is_visible="true"
       lpeversion="1"
       offset_points="0,10"
       not_jump="false"
       sort_points="true"
       interpolator_type="CubicBezierJohan"
       interpolator_beta="0.2"
       start_linecap_type="zerowidth"
       linejoin_type="extrp_arc"
       miter_limit="4"
       scale_width="1"
       end_linecap_type="zerowidth" /><inkscape:path-effect
       effect="powerstroke"
       id="path-effect3581"
       is_visible="true"
       lpeversion="1"
       offset_points="0,28.49"
       not_jump="false"
       sort_points="true"
       interpolator_type="CubicBezierJohan"
       interpolator_beta="0.2"
       start_linecap_type="zerowidth"
       linejoin_type="extrp_arc"
       miter_limit="4"
       scale_width="1"
       end_linecap_type="zerowidth" /><inkscape:path-effect
       effect="powerstroke"
       id="path-effect3573"
       is_visible="true"
       lpeversion="1"
       offset_points="0,28.49"
       not_jump="false"
       sort_points="true"
       interpolator_type="CubicBezierJohan"
       interpolator_beta="0.2"
       start_linecap_type="zerowidth"
       linejoin_type="extrp_arc"
       miter_limit="4"
       scale_width="1"
       end_linecap_type="zerowidth" /><inkscape:path-effect
       effect="fill_between_many"
       method="bsplinespiro"
       linkedpaths="#path3571,0,1"
       id="path-effect3575"
       is_visible="true"
       lpeversion="0"
       join="true"
       close="true"
       autoreverse="true" /><inkscape:path-effect
       effect="fill_between_many"
       method="bsplinespiro"
       linkedpaths="#path3579,0,1"
       id="path-effect3583"
       is_visible="true"
       lpeversion="0"
       join="true"
       close="true"
       autoreverse="true" /><inkscape:path-effect
       effect="fill_between_many"
       method="bsplinespiro"
       linkedpaths="#path3603,0,1"
       id="path-effect3607"
       is_visible="true"
       lpeversion="0"
       join="true"
       close="true"
       autoreverse="true" /><inkscape:path-effect
       effect="fill_between_many"
       method="bsplinespiro"
       linkedpaths="#path3863,0,1"
       id="path-effect3867"
       is_visible="true"
       lpeversion="0"
       join="true"
       close="true"
       autoreverse="true" /><inkscape:path-effect
       effect="fill_between_many"
       method="bsplinespiro"
       linkedpaths="#path3906,0,1"
       id="path-effect3910"
       is_visible="true"
       lpeversion="0"
       join="true"
       close="true"
       autoreverse="true" /><filter
       inkscape:collect="always"
       style="color-interpolation-filters:sRGB"
       id="filter43"
       x="-0.017030086"
       y="-0.030532719"
       width="1.0340543"
       height="1.0612288"><feGaussianBlur
         inkscape:collect="always"
         stdDeviation="0.14792513"
         id="feGaussianBlur43" /></filter><filter
       inkscape:collect="always"
       style="color-interpolation-filters:sRGB"
       id="filter42"
       x="-0.015115826"
       y="-0.029179985"
       width="1.0302427"
       height="1.0583646"><feGaussianBlur
         inkscape:collect="always"
         stdDeviation="0.14792513"
         id="feGaussianBlur42" /></filter><filter
       inkscape:collect="always"
       style="color-interpolation-filters:sRGB"
       id="filter41"
       x="-0.017367285"
       y="-0.028120437"
       width="1.0347346"
       height="1.0562824"><feGaussianBlur
         inkscape:collect="always"
         stdDeviation="0.14792513"
         id="feGaussianBlur41" /></filter><filter
       inkscape:collect="always"
       style="color-interpolation-filters:sRGB"
       id="filter40"
       x="-0.019659369"
       y="-0.038964564"
       width="1.0393404"
       height="1.07793"><feGaussianBlur
         inkscape:collect="always"
         stdDeviation="0.14792513"
         id="feGaussianBlur40" /></filter><filter
       inkscape:collect="always"
       style="color-interpolation-filters:sRGB"
       id="filter39"
       x="-0.019122583"
       y="-0.028414117"
       width="1.0382054"
       height="1.0568276"><feGaussianBlur
         inkscape:collect="always"
         stdDeviation="0.14792513"
         id="feGaussianBlur39" /></filter><filter
       inkscape:collect="always"
       style="color-interpolation-filters:sRGB"
       id="filter38"
       x="-0.007784192"
       y="-0.021279179"
       width="1.0155676"
       height="1.0424325"><feGaussianBlur
         inkscape:collect="always"
         stdDeviation="0.14792513"
         id="feGaussianBlur38" /></filter><filter
       inkscape:collect="always"
       style="color-interpolation-filters:sRGB"
       id="filter37"
       x="-0.0095010524"
       y="-0.029200783"
       width="1.0189951"
       height="1.0583849"><feGaussianBlur
         inkscape:collect="always"
         stdDeviation="0.14792513"
         id="feGaussianBlur37" /></filter><filter
       inkscape:collect="always"
       style="color-interpolation-filters:sRGB"
       id="filter36"
       x="-0.017030097"
       y="-0.030532724"
       width="1.0340543"
       height="1.0612288"><feGaussianBlur
         inkscape:collect="always"
         stdDeviation="0.14792513"
         id="feGaussianBlur36" /></filter><filter
       inkscape:collect="always"
       style="color-interpolation-filters:sRGB"
       id="filter35"
       x="-0.0095999853"
       y="-0.026215595"
       width="1.0192007"
       height="1.0523053"><feGaussianBlur
         inkscape:collect="always"
         stdDeviation="0.14792513"
         id="feGaussianBlur35" /></filter><filter
       inkscape:collect="always"
       style="color-interpolation-filters:sRGB"
       id="filter34"
       x="-0.017030104"
       y="-0.030532724"
       width="1.0340543"
       height="1.0612288"><feGaussianBlur
         inkscape:collect="always"
         stdDeviation="0.14792513"
         id="feGaussianBlur34" /></filter><filter
       inkscape:collect="always"
       style="color-interpolation-filters:sRGB"
       id="filter33"
       x="-0.016709091"
       y="-0.041372971"
       width="1.0333944"
       height="1.0827454"><feGaussianBlur
         inkscape:collect="always"
         stdDeviation="0.14792513"
         id="feGaussianBlur33" /></filter><linearGradient
       inkscape:collect="always"
       xlink:href="#linearGradient2154"
       id="linearGradient2156-4"
       x1="259.69183"
       y1="285.74271"
       x2="259.69183"
       y2="3.3432722"
       gradientUnits="userSpaceOnUse"
       gradientTransform="matrix(1.2102557,0,0,1.2154057,439.08004,93.063209)" /><linearGradient
       inkscape:collect="always"
       xlink:href="#linearGradient2"
       id="linearGradient6"
       x1="413.33856"
       y1="1380.2512"
       x2="1606.5714"
       y2="1380.2512"
       gradientUnits="userSpaceOnUse"
       gradientTransform="rotate(-90,845.34842,3477.4574)" /><linearGradient
       id="linearGradient2"
       inkscape:collect="always"><stop
         style="stop-color:#fffbe6;stop-opacity:1;"
         offset="0"
         id="stop2" /><stop
         style="stop-color:#ffffff;stop-opacity:1;"
         offset="1"
         id="stop3" /></linearGradient><filter
       inkscape:collect="always"
       style="color-interpolation-filters:sRGB"
       id="filter44"
       x="-0.004488376"
       y="-0.031344506"
       width="1.0089768"
       height="1.062689"><feGaussianBlur
         inkscape:collect="always"
         stdDeviation="15.583872"
         id="feGaussianBlur44" /></filter><linearGradient
       inkscape:collect="always"
       xlink:href="#linearGradient2"
       id="linearGradient5"
       x1="228.76036"
       y1="1380.2512"
       x2="1421.9932"
       y2="1380.2512"
       gradientUnits="userSpaceOnUse"
       gradientTransform="rotate(-90,845.34842,3477.4574)" /><filter
       inkscape:collect="always"
       style="color-interpolation-filters:sRGB"
       id="filter45"
       x="-0.0019266395"
       y="-0.013454658"
       width="1.0038533"
       height="1.0269093"><feGaussianBlur
         inkscape:collect="always"
         stdDeviation="6.689391"
         id="feGaussianBlur45" /></filter><linearGradient
       inkscape:collect="always"
       xlink:href="#linearGradient2"
       id="linearGradient3"
       x1="321.0495"
       y1="1663.2952"
       x2="1514.2823"
       y2="1663.2952"
       gradientUnits="userSpaceOnUse"
       gradientTransform="matrix(0,-1.2255353,1.2255353,0,-3290.2847,4759.6004)" /></defs><g
     inkscape:groupmode="layer"
     id="layer6"
     inkscape:label="Layer 6"
     style="display:inline"
     transform="matrix(0.83077295,0,0,0.83077295,611.04763,-104.70184)"><g
       inkscape:groupmode="layer"
       id="layer14"
       inkscape:label="Layer 13"
       style="display:inline;fill:#958c87;fill-opacity:1;stroke:#f8dfb8;stroke-opacity:1"
       transform="translate(-547.3287,-5.0278521)"><g
         inkscape:groupmode="layer"
         id="layer5-7"
         inkscape:label="Layer 5"
         style="display:inline"
         transform="translate(-628.93394,36.321375)"><rect
           style="fill:url(#linearGradient2156-4);fill-opacity:1;stroke:none;stroke-width:3.33831;stroke-linecap:square;paint-order:stroke markers fill"
           id="rect539-0"
           width="611.4787"
           height="343.95679"
           x="440.74567"
           y="94.735901" /></g><g
         inkscape:groupmode="layer"
         id="layer18"
         inkscape:label="Layer 16"
         style="display:inline;opacity:1;fill:#ffffff;fill-opacity:1;stroke:none;stroke-opacity:1"
         transform="matrix(0.06472282,0,0,0.06472282,198.57482,140.35259)"><path
           id="path63"
           style="display:inline;opacity:0.514644;mix-blend-mode:normal;fill:url(#linearGradient6);stroke:none;stroke-width:31.7555;stroke-linecap:round;stroke-linejoin:round;stroke-opacity:1;paint-order:markers fill stroke;filter:url(#filter44)"
           d="m -3593.371,2716.2344 a 499.13049,499.13049 0 0 0 -419.7085,229.0282 499.13049,499.13049 0 0 0 -180.8046,-34.056 499.13049,499.13049 0 0 0 -140.9145,20.3238 499.13049,499.13049 0 0 0 -330.9193,-125.6082 499.13049,499.13049 0 0 0 -262.6986,75.3296 311.95658,311.95658 0 0 0 -177.9419,-55.836 311.95658,311.95658 0 0 0 -311.961,311.961 v 772.0904 h 4004.5246 323.8785 4004.5201 v -639.514 a 467.93485,467.93485 0 0 0 -467.9369,-467.9325 467.93485,467.93485 0 0 0 -254.0292,75.0619 467.93485,467.93485 0 0 0 -338.6859,-145.247 467.93485,467.93485 0 0 0 -340.9678,148.8218 467.93485,467.93485 0 0 0 -220.5538,-55.2416 467.93485,467.93485 0 0 0 -245.5684,70.2394 311.95658,311.95658 0 0 0 -230.16675,-101.4282 311.95658,311.95658 0 0 0 -108.2242,20.2194 499.13049,499.13049 0 0 0 -297.3215,-98.212 499.13049,499.13049 0 0 0 -419.7044033,229.0282 499.13049,499.13049 0 0 0 -180.8088967,-34.056 499.13049,499.13049 0 0 0 -140.9146,20.3238 499.13049,499.13049 0 0 0 -330.9192,-125.6082 499.13049,499.13049 0 0 0 -262.6986,75.3296 311.95658,311.95658 0 0 0 -177.94205,-55.836 311.95658,311.95658 0 0 0 -188.6845,64.8999 467.93485,467.93485 0 0 0 -267.3349,-88.295 467.93485,467.93485 0 0 0 -254.0291,75.0619 467.93485,467.93485 0 0 0 -338.6859,-145.247 467.93485,467.93485 0 0 0 -340.9677,148.8218 467.93485,467.93485 0 0 0 -220.5493,-55.2416 467.93485,467.93485 0 0 0 -245.573,70.2394 311.95658,311.95658 0 0 0 -230.1624,-101.4282 311.95658,311.95658 0 0 0 -108.2241,20.2194 499.13049,499.13049 0 0 0 -297.3217,-98.212 z"
           transform="matrix(1.2255353,0,0,1.2255353,282.33812,-885.03118)" /><path
           id="path62"
           style="display:inline;opacity:0.62622;mix-blend-mode:normal;fill:url(#linearGradient5);stroke:none;stroke-width:31.7555;stroke-linecap:round;stroke-linejoin:round;stroke-opacity:1;paint-order:markers fill stroke;filter:url(#filter45)"
           d="m 1089.6553,2900.8126 a 499.13049,499.13049 0 0 1 419.7086,229.0282 499.13049,499.13049 0 0 1 180.8046,-34.056 499.13049,499.13049 0 0 1 140.9145,20.3238 499.13049,499.13049 0 0 1 330.9193,-125.6082 499.13049,499.13049 0 0 1 262.6986,75.3296 311.95658,311.95658 0 0 1 177.9419,-55.836 311.95658,311.95658 0 0 1 311.961,311.961 v 772.0904 h -4004.5246 -323.8785 -4004.5201 v -639.514 a 467.93485,467.93485 0 0 1 467.9369,-467.9325 467.93485,467.93485 0 0 1 254.0292,75.0619 467.93485,467.93485 0 0 1 338.6859,-145.247 467.93485,467.93485 0 0 1 340.9678,148.8218 467.93485,467.93485 0 0 1 220.5538,-55.2416 467.93485,467.93485 0 0 1 245.5683,70.2394 311.95658,311.95658 0 0 1 230.1668,-101.4282 311.95658,311.95658 0 0 1 108.2242,20.2194 499.13049,499.13049 0 0 1 297.3216,-98.212 499.13049,499.13049 0 0 1 419.7044,229.0282 499.13049,499.13049 0 0 1 180.8089,-34.056 499.13049,499.13049 0 0 1 140.9146,20.3238 499.13049,499.13049 0 0 1 330.9192,-125.6082 499.13049,499.13049 0 0 1 262.6986,75.3296 311.95658,311.95658 0 0 1 177.942,-55.836 311.95658,311.95658 0 0 1 188.6845,64.8999 467.93485,467.93485 0 0 1 267.33495,-88.295 467.93485,467.93485 0 0 1 254.0291,75.0619 467.93485,467.93485 0 0 1 338.6859,-145.247 467.93485,467.93485 0 0 1 340.967697,148.8218 467.93485,467.93485 0 0 1 220.549403,-55.2416 467.93485,467.93485 0 0 1 245.5729,70.2394 311.95658,311.95658 0 0 1 230.1623,-101.4282 311.95658,311.95658 0 0 1 108.2241,20.2194 499.13049,499.13049 0 0 1 297.32165,-98.212 z"
           transform="matrix(1.2255353,0,0,1.2255353,282.33812,-885.03118)" /><path
           id="path53"
           style="fill:url(#linearGradient3);stroke:none;stroke-width:38.9175;stroke-linecap:round;stroke-linejoin:round;stroke-opacity:1;paint-order:markers fill stroke"
           d="m -4121.4649,2903.7941 a 611.70206,611.70206 0 0 0 -514.3677,280.6821 611.70206,611.70206 0 0 0 -221.5825,-41.7368 611.70206,611.70206 0 0 0 -172.6957,24.9075 611.70206,611.70206 0 0 0 -405.5533,-153.9373 611.70206,611.70206 0 0 0 -321.9464,92.3191 382.31381,382.31381 0 0 0 -218.0741,-68.429 382.31381,382.31381 0 0 0 -382.3192,382.3193 v 946.224 h 4907.6864 396.9246 4907.6809 v -783.747 a 573.4707,573.4707 0 0 0 -573.4732,-573.4678 573.4707,573.4707 0 0 0 -311.3218,91.991 573.4707,573.4707 0 0 0 -415.0715,-178.0053 573.4707,573.4707 0 0 0 -417.8681,182.3864 573.4707,573.4707 0 0 0 -270.2965,-67.7006 573.4707,573.4707 0 0 0 -300.9527,86.0809 382.31381,382.31381 0 0 0 -282.0775,-124.3039 382.31381,382.31381 0 0 0 -132.6326,24.7796 611.70206,611.70206 0 0 0 -364.37802,-120.3622 611.70206,611.70206 0 0 0 -514.36258,280.6821 611.70206,611.70206 0 0 0 -221.587695,-41.7368 611.70206,611.70206 0 0 0 -172.695825,24.9075 611.70206,611.70206 0 0 0 -405.55317,-153.9373 611.70206,611.70206 0 0 0 -321.94642,92.3191 382.31381,382.31381 0 0 0 -218.07429,-68.429 382.31381,382.31381 0 0 0 -231.2395,79.5371 573.4707,573.4707 0 0 0 -327.6284,-108.2086 573.4707,573.4707 0 0 0 -311.3216,91.991 573.4707,573.4707 0 0 0 -415.0714,-178.0053 573.4707,573.4707 0 0 0 -417.8681,182.3864 573.4707,573.4707 0 0 0 -270.291,-67.7006 573.4707,573.4707 0 0 0 -300.9583,86.0809 382.31381,382.31381 0 0 0 -282.0721,-124.3039 382.31381,382.31381 0 0 0 -132.6325,24.7796 611.70206,611.70206 0 0 0 -364.3782,-120.3622 z" /></g><g
         inkscape:groupmode="layer"
         id="layer1-27"
         inkscape:label="Layer 1"
         style="display:inline"
         transform="matrix(1.0001209,0,0,0.94134324,-629.05226,56.969258)"><path
           style="display:inline;opacity:1;mix-blend-mode:normal;fill:#c2ecf3;fill-opacity:1;stroke:none;stroke-width:0.701405;stroke-linecap:square;stroke-opacity:1;paint-order:stroke markers fill"
           d="m 442.35346,442.13163 h 609.83824 l -0.042,-135.0877 h -24.1149 v 52.03131 H 988.92035 V 299.40369 H 963.06499 V 354.237 h -55.68804 v -32.25487 l -27.30491,8.89901 v 33.83871 h -42.96857 v -70.15442 h -27.84424 v 85.47551 h -18.56281 v -37.09316 h -5.80183 v -62.59779 l -22.97028,15.11007 v 65.28693 h -55.31626 v -57.01915 l -3.17887,1.03602 v -5.59756 h -17.21316 v 6.27213 l -21.06459,14.79253 v 38.80546 h -33.31409 v -41.0538 h -5.39101 v -17.39084 h -8.90683 l -9.84442,11.97404 v 41.33887 H 562.22322 V 338.7946 h -3.98464 v -29.64994 h -3.28148 v -3.99136 h -14.53223 v 46.47063 h -22.97032 v -33.35619 h -7.96929 l -6.09416,-7.4125 h -12.18833 v 6.55718 h -5.62538 v 41.90909 h -19.22016 v -48.46627 h -12.65712 v -4.56155 h -11.38806 z"
           id="path4195-5"
           sodipodi:nodetypes="cccccccccccccccccccccccccccccccccccccccccccccccccccccccccccc" /><path
           style="display:inline;opacity:1;fill:#91d6e7;fill-opacity:1;stroke:none;stroke-width:0.686653;stroke-linecap:square;stroke-opacity:1;paint-order:stroke markers fill"
           d="m 483.72425,356.91863 h -20.62572 -8.4378 V 331.78072 H 442.4728 v 111.48111 h 609.5581 V 332.31324 l -35.8738,-11.42545 V 368.0568 H 978.15367 V 332.31324 H 954.71755 V 316.34277 H 934.209 v 12.70559 h -13.00826 v -34.29135 l -7.03151,1.91264 v -2.59575 h -14.06298 v 6.01124 h -6.21118 v 58.47291 h -29.5323 v -26.50409 h -13.12544 v 32.78855 h -37.26696 v -46.72368 l -13.45068,-9.05311 -11.35357,7.64164 v 15.3466 h -61.44883 v 5.73799 l -9.99463,-6.72697 v -8.57436 l -2.8782,0.89908 v -3.63144 h -12.20617 v 4.37181 h -8.6722 v 11.47598 h -5.39081 v -4.37179 h -12.65669 v 5.1915 h -11.95355 v 25.9576 h -55.54885 v -37.16035 h -4.92206 v -5.46475 H 599.744 v -3.27887 h -4.45329 v 6.01123 H 588.728 v 4.09859 h -2.8126 v 46.1772 h -7.0315 v -21.03933 h -15.46932 v 31.96885 h -12.42231 v -42.07864 h -7.26587 v -46.45043 l -9.57803,-13.96781 -9.64141,13.42133 v 62.57147 h -5.15644 v -11.20277 h 2.81259 v -5.46475 l -40.31391,-3.82532 v 7.65068 h 2.57822 z"
           id="path2416-1"
           sodipodi:nodetypes="cccccccccccccccccccccccccccccccccccccccccccccccccccccccccccccccccccccccccccccccc" /><path
           style="display:inline;opacity:1;fill:#80c6d9;fill-opacity:1;stroke:none;stroke-width:0.681841;stroke-linecap:square;stroke-opacity:1;paint-order:stroke markers fill"
           d="m 442.28891,443.89065 h 609.92659 l -0.083,-93.72883 h -16.1595 v 23.14645 h -12.1817 v -31.05242 h -15.1651 v -20.80504 h 1.9693 v -3.36769 h -4.6878 v -4.71477 h -7.61761 l -4.68784,5.38829 h -8.55517 v 3.50241 h 1.99229 v 49.84193 h -8.90678 v -35.83231 h -9.72716 v -10.3725 h -2.1095 v 6.73539 h -10.07872 l -6.62401,4.39588 v 25.91341 h -11.42393 v -9.42956 h -10.5475 v -16.56907 l -18.15041,-12.04506 v 29.82651 h -8.68728 v 7.67834 h -14.41494 v -56.71203 h -5.03937 v -3.6371 h -5.03937 v -23.97801 h -3.04705 v 23.30444 h -6.09413 v 5.11891 h -3.04684 v 65.73747 h -2.10952 v -1.88592 h -3.51583 v -14.54844 h -7.14888 v -66.54572 h -5.62513 v -17.24259 h -6.21132 v -6.19658 h -6.5629 v 11.8543 h -6.09412 v 30.30928 h -7.14886 v 61.83094 h -5.03937 l -0.63308,2.71575 h -9.32847 v -25.07726 h -3.98462 v -3.50241 h -7.50045 v 2.82885 h -11.48505 v 19.26322 l -13.59458,11.18078 h -9.02398 v -45.39657 h -5.50816 V 307.7106 h -16.52444 v 16.56908 h -10.07874 v 35.56289 h -16.87602 v -15.49143 h -2.57828 v -1.61647 h -6.68009 v 2.15531 h -8.438 v 7.40894 h -10.89912 v 4.44536 h -12.8157 v -48.11271 l -7.29249,-8.38226 V 281.19875 H 657.096 v -5.71518 l -6.2152,-7.14396 v -15.52622 h -2.56894 v 28.38536 h -5.46936 v 19.24109 h -5.30361 v 48.76945 l -7.62397,6.85822 v 7.81074 h -7.95542 v -9.90633 l -3.8881,-1.19747 v -21.28218 l -14.57505,9.6724 v 11.09273 h -4.243 v 36.19609 h -4.97216 v -23.62272 l -10.19287,-11.71611 -10.44151,12.00186 v 16.66926 h -3.72911 v -5.14367 l -3.57884,-1.10222 V 336.44541 H 549.6973 v 35.43407 l -13.35062,8.85984 h -5.04631 v -15.52756 h -5.30362 V 356.258 h -14.91644 v 19.4316 h -23.03763 v -20.0031 l -18.60367,-5.72977 v 4.96775 h -5.09688 v 13.52591 h -5.80082 v -27.05183 h -11.10447 v 8.2109 h -4.89344 z"
           id="path1676-5"
           sodipodi:nodetypes="ccccccccccccccccccccccccccccccccccccccccccccccccccccccccccccccccccccccccccccccccccccccccccccccccccccccccccccccccccccccccccccccccccccccccccccccccccc" /><path
           style="display:inline;opacity:1;fill:#4da5bd;fill-opacity:1;stroke:none;stroke-width:0.69186;stroke-linecap:square;stroke-opacity:1;paint-order:stroke markers fill"
           d="M 1052.1123,444.09392 H 442.30293 v -54.36953 h 4.48055 v -16.64374 h 1.6407 v -3.19005 h 5.62524 v 3.32873 h 5.85962 v 13.0376 h 9.96139 v 7.76709 l 22.14938,5.27049 v 5.96402 h 11.71925 v -27.46217 h 10.07855 v -4.43832 h 13.82873 v 21.91425 h 9.2582 v -21.77554 l 15.821,-3.74485 v 6.1027 h 4.92209 v 7.07358 h 7.61753 v 3.88354 h 4.5705 v -14.70196 l 3.39859,-2.21916 v -1.80307 h 2.34385 v 1.38697 l 5.30914,1.68362 v 13.85052 h 2.30837 v 11.37324 l 9.69069,3.07309 v -7.37273 h 4.25523 v -27.60086 h 13.94592 v 32.87138 h 8.78945 v -21.08207 h 26.48549 v 18.86289 h 8.90666 v -46.87986 l 6.91432,-9.57013 6.56281,10.54103 v 33.70356 h 3.2814 v 11.09584 h 8.78941 v -25.10431 h 11.71929 v 9.43146 h 18.16484 v 7.21229 h 7.38311 v -6.7962 l 14.12308,-9.65026 v 20.19129 h 17.7533 v -8.18318 h 23.67289 v 17.05983 h 3.51578 v -33.56487 l 15.31421,4.85644 v 13.45167 h 9.17902 v -13.31499 h 28.00901 v 27.46218 h 5.03931 v -9.43146 h 10.54732 v 3.60614 l 7.12503,-2.25948 v -12.99728 h -1.85136 v -2.21916 h 12.77398 v -6.3801 h 8.08629 v 7.21229 h 14.88344 v 2.77394 h -3.16426 v 8.73798 h 12.30534 v -23.43993 l 27.89181,6.6575 v 25.3817 h 2.57824 v -4.71573 h 8.08623 v 4.85442 h 1.99228 v -9.15405 h 7.96901 v -8.04449 l 5.08267,1.61178 24.31869,-7.71193 v 26.21134 h 7.04552 v -6.5188 h 11.60213 v -33.98097 h 3.633 v -3.05134 h 9.14091 v 2.77394 h 7.7349 v 18.16942 h 15.9381 v 8.04448 h 3.3985 v -3.32875 h 8.5551 v 9.73604 h 11.8365 z"
           id="path467-4"
           sodipodi:nodetypes="ccccccccccccccccccccccccccccccccccccccccccccccccccccccccccccccccccccccccccccccccccccccccccccccccccccccccccccccccccccccccccccccc" /></g></g><g
       inkscape:groupmode="layer"
       id="layer6-9"
       inkscape:label="Layer 6"
       style="display:inline;fill:#958c87;fill-opacity:1;stroke:#f8dfb8;stroke-opacity:1"
       transform="matrix(1.0001787,0,0,0.91331712,-1176.4217,13.397238)"><path
         style="display:inline;opacity:1;fill:#fffbe6;fill-opacity:1;stroke:#ffffff;stroke-width:0.142025;stroke-dasharray:none;stroke-opacity:1;filter:url(#filter43)"
         d="m 686.18714,295.11195 c -2.29043,-0.59929 -3.63159,-3.30535 -2.87481,-5.80052 0.33345,-1.09939 1.48448,-2.36221 2.48475,-2.72604 0.7267,-0.26432 2.22825,-0.27227 2.7695,-0.0147 0.17799,0.0847 0.23755,0.0439 0.23764,-0.16295 3.4e-4,-0.6155 0.83312,-2.1783 1.62031,-3.04037 2.44879,-2.6817 6.34648,-2.69828 8.77632,-0.0374 0.40161,0.43982 0.91521,1.20095 1.14127,1.69138 l 0.41104,0.8917 0.39747,-0.22509 c 1.32147,-0.74835 3.18994,0.35082 3.47024,2.04145 0.078,0.47001 0.14608,0.55734 0.43478,0.55734 1.03627,0 2.25104,0.86852 2.77669,1.98525 0.3714,0.78894 0.39428,2.17709 0.0481,2.91939 -0.33471,0.7178 -0.85847,1.30601 -1.50091,1.68564 -0.54033,0.3193 -0.58757,0.32091 -10.11099,0.34497 -5.31817,0.0134 -9.79612,-0.0355 -10.08143,-0.11015 z"
         id="path19" /><path
         style="display:inline;opacity:1;fill:#fffbe6;fill-opacity:1;stroke:#ffffff;stroke-width:0.146789;stroke-dasharray:none;stroke-opacity:1;filter:url(#filter42)"
         d="m 604.64782,206.79215 c 1.48915,-0.8714 2.29129,-2.19521 2.38998,-3.94422 0.1134,-2.00964 -0.78571,-3.65461 -2.46949,-4.51817 -0.66074,-0.33887 -0.99059,-0.40691 -1.97432,-0.40727 l -1.18102,-4.5e-4 -0.55996,-1.21534 c -1.3168,-2.85786 -3.75925,-4.40427 -6.63617,-4.20161 -2.20651,0.15544 -3.9628,1.25879 -5.26056,3.3048 -0.36014,0.56782 -0.48169,0.65308 -0.93334,0.65467 -1.36131,0.005 -2.86588,0.77318 -3.80734,1.94443 l -0.5805,0.72223 -1.08156,0.0227 c -0.86307,0.0181 -1.22656,0.10392 -1.79966,0.42473 -1.65022,0.92379 -2.3919,2.9035 -1.84728,4.93083 0.21102,0.78555 1.51849,2.26603 2.21475,2.5078 0.34525,0.11989 3.82146,0.1632 11.7126,0.14595 l 11.22161,-0.0246 z"
         id="path26" /><path
         style="display:inline;opacity:1;fill:#fffbe6;fill-opacity:1;stroke:#ffffff;stroke-width:0.116126;stroke-dasharray:none;stroke-opacity:1;filter:url(#filter41)"
         d="m 1017.9664,281.09956 c 1.2951,-0.59259 2.042,-1.80083 2.042,-3.3032 0,-1.55668 -0.4873,-2.55382 -1.5834,-3.23978 -0.7436,-0.46543 -0.8123,-0.6148 -0.8854,-1.92759 -0.2297,-4.12187 -3.7991,-6.76545 -7.5125,-5.56395 -0.6186,0.20016 -1.4217,0.80611 -2.2197,1.67494 -1.2366,1.34616 -1.2581,1.35702 -1.9312,0.97584 -0.9001,-0.50976 -2.6694,-0.48979 -3.6921,0.0417 -0.9582,0.49798 -1.8452,1.88562 -2.0554,3.21579 -0.13594,0.85961 -0.22634,0.94878 -1.12094,1.10544 -0.6908,0.12097 -1.2359,0.45813 -1.8788,1.16224 -0.8327,0.91184 -0.9057,1.10707 -0.9057,2.42079 0,1.17627 0.1124,1.57534 0.6359,2.25663 1.1548,1.50296 1.2201,1.51182 11.20534,1.52286 7.1974,0.008 9.296,-0.0645 9.9019,-0.34168 z"
         id="path24" /><path
         style="display:inline;opacity:1;fill:#fffbe6;fill-opacity:1;stroke:#ffffff;stroke-width:0.111288;stroke-dasharray:none;stroke-opacity:1;filter:url(#filter40)"
         d="m 708.69381,157.19357 c 0.57952,-0.34541 1.1098,-1.1076 1.2206,-1.7544 0.0378,-0.22068 0.0448,-0.76784 0.0155,-1.21591 -0.0461,-0.70522 -0.10863,-0.90332 -0.46558,-1.47449 -0.72202,-1.15533 -2.05413,-1.66486 -3.24546,-1.24139 -0.31347,0.11143 -0.61541,0.24856 -0.67098,0.30474 -0.24327,0.24597 -0.35049,0.0736 -0.40343,-0.64857 -0.11443,-1.56117 -1.16118,-3.21238 -2.44956,-3.86409 -0.58184,-0.29432 -0.78368,-0.33472 -1.672,-0.33472 -0.88361,0 -1.09029,0.0409 -1.64836,0.32603 -0.80474,0.41119 -1.57562,1.22635 -1.97865,2.09232 l -0.31251,0.67145 -0.55594,-0.4591 c -0.32092,-0.26502 -0.91561,-0.59124 -1.40671,-0.77168 -0.72392,-0.26597 -0.97761,-0.30453 -1.70153,-0.25861 -1.75336,0.11122 -3.18789,1.14712 -3.9611,2.86039 -0.37698,0.83532 -0.39906,0.94581 -0.39906,1.99666 0,1.00539 0.0321,1.18661 0.33373,1.88376 0.38478,0.88933 0.97367,1.65206 1.51952,1.96807 0.3631,0.21021 0.75524,0.22022 8.82007,0.22514 l 8.44007,0.005 z"
         id="path28"
         transform="matrix(1.3839494,0,0,1.3839494,-268.57402,-58.450324)" /><path
         style="display:inline;opacity:1;fill:#fffbe6;fill-opacity:1;stroke:#ffffff;stroke-width:0.133414;stroke-dasharray:none;stroke-opacity:1;filter:url(#filter39)"
         d="m 802.63312,275.83021 c 1.78335,-0.72059 2.3713,-2.31369 1.26545,-3.42878 l -0.42853,-0.43211 0.20793,-0.62979 c 0.30895,-0.93577 0.15375,-1.60096 -0.54484,-2.33512 -0.36264,-0.38111 -0.76115,-0.64616 -1.12049,-0.74525 l -0.55768,-0.15378 0.0654,-0.89252 c 0.10835,-1.47808 -0.28262,-2.62839 -1.29547,-3.81155 -1.10853,-1.29492 -2.38713,-1.92913 -4.15564,-2.06124 -3.14919,-0.23526 -6.02228,1.92486 -6.32616,4.75629 -0.0459,0.42738 -0.10703,0.77705 -0.13591,0.77705 -0.0289,0 -0.23613,-0.10576 -0.46053,-0.23503 -0.25953,-0.14949 -0.71185,-0.23617 -1.24292,-0.23816 -1.38224,-0.005 -2.2144,0.79315 -2.37504,2.27854 -0.07,0.64733 -0.10493,0.70796 -0.40937,0.71077 -0.42345,0.004 -1.39031,0.48099 -1.77971,0.87819 -0.45375,0.46283 -0.90674,1.54455 -0.92871,2.21773 -0.0493,1.51119 0.50092,2.52971 1.80188,3.33531 0.45183,0.27978 3.26971,0.36612 11.09154,0.33985 6.43163,-0.0216 6.58126,-0.0283 7.32879,-0.3304 z"
         id="path14" /><path
         style="display:inline;opacity:1;fill:#fffbe6;fill-opacity:1;stroke:#ffffff;stroke-width:0.27683;stroke-dasharray:none;stroke-opacity:1;filter:url(#filter38)"
         d="m 459.9558,240.03481 c -0.71709,-0.99832 -0.69174,-1.61278 0.10952,-2.65559 1.24293,-1.61763 5.10179,-2.84945 9.85751,-3.1467 2.733,-0.17083 2.97604,-0.23289 2.97604,-0.75991 0,-3.48202 3.53384,-6.70311 8.24184,-7.51242 l 2.02525,-0.34815 0.16418,-1.12439 c 0.36737,-2.51588 2.19538,-5.0545 4.53541,-6.29847 2.69983,-1.43525 6.5785,-0.65377 8.79812,1.77267 1.20806,1.32061 2.17708,3.52274 2.34795,5.33576 l 0.14249,1.51194 1.35573,-0.56806 c 1.62987,-0.68295 4.28827,-0.5875 5.72268,0.20546 1.32959,0.73502 2.58774,2.13592 2.92585,3.25784 0.27048,0.89749 0.35754,0.95744 1.15327,0.79396 2.24616,-0.46146 5.24936,1.78008 5.59973,4.17955 l 0.16339,1.11893 1.62509,0.18525 c 3.12374,0.35609 5.50157,2.28558 5.08055,4.1226 l -0.15883,0.69304 h -31.05875 -31.05875 z"
         id="path9" /><path
         id="path29"
         style="display:inline;opacity:1;fill:#fffbe6;fill-opacity:1;stroke:#ffffff;stroke-width:0.146789;stroke-dasharray:none;stroke-opacity:1;filter:url(#filter37)"
         d="m 572.6189,267.52858 c -2.6436,0.0134 -4.8674,1.54 -6.1019,4.21924 l -0.56,1.21537 -1.1806,5.6e-4 c -0.9837,3.6e-4 -1.3141,0.0679 -1.9748,0.40682 -1.6838,0.86355 -2.5825,2.50893 -2.4691,4.51856 0.0987,1.74901 0.9009,3.07287 2.3901,3.94426 l 0.5921,0.34628 11.2216,0.0249 c 3.6833,0.008 6.3203,7.2e-4 8.2104,-0.0192 l 8.5572,0.0192 c 7.8911,0.0172 11.3677,-0.0261 11.7129,-0.14598 0.6963,-0.24178 2.0035,-1.72269 2.2145,-2.50824 0.5446,-2.02733 -0.1969,-4.00669 -1.8471,-4.93047 -0.5731,-0.32082 -0.9365,-0.40683 -1.7996,-0.42493 l -1.0814,-0.0226 -0.5807,-0.72197 c -0.9415,-1.17126 -2.446,-1.93969 -3.8074,-1.94469 -0.4516,-0.002 -0.573,-0.0868 -0.9331,-0.65464 -1.2978,-2.04601 -3.0542,-3.14947 -5.2608,-3.3049 -2.8769,-0.20267 -5.3193,1.34385 -6.6361,4.2017 l -0.5601,1.21537 h -0.0237 c -0.9312,-0.89083 -2.1934,-1.45327 -3.3543,-1.45753 -0.4516,-0.002 -0.573,-0.0868 -0.9331,-0.65464 -1.2978,-2.04601 -3.0541,-3.14947 -5.2607,-3.3049 -0.1798,-0.0127 -0.358,-0.0184 -0.5343,-0.0175 z" /><path
         style="display:inline;opacity:1;fill:#fffbe6;fill-opacity:1;stroke:#ffffff;stroke-width:0.142025;stroke-dasharray:none;stroke-opacity:1;filter:url(#filter36)"
         d="m 919.4236,207.60085 c -2.2904,-0.59929 -3.6316,-3.30535 -2.8748,-5.80052 0.3334,-1.09939 1.4845,-2.36221 2.4847,-2.72604 0.7267,-0.26432 2.2283,-0.27227 2.7695,-0.0147 0.178,0.0847 0.2376,0.0439 0.2377,-0.16295 3e-4,-0.6155 0.8331,-2.1783 1.6203,-3.04037 2.4488,-2.6817 6.3465,-2.69828 8.7763,-0.0374 0.4016,0.43982 0.9152,1.20095 1.1413,1.69138 l 0.411,0.8917 0.3975,-0.22509 c 1.3215,-0.74835 3.1899,0.35082 3.4702,2.04145 0.078,0.47001 0.1461,0.55734 0.4348,0.55734 1.0363,0 2.2511,0.86852 2.7767,1.98525 0.3714,0.78894 0.3943,2.17709 0.048,2.91939 -0.3347,0.7178 -0.8585,1.30601 -1.5009,1.68564 -0.5403,0.3193 -0.5876,0.32091 -10.111,0.34497 -5.3182,0.0134 -9.7961,-0.0355 -10.0814,-0.11015 z"
         id="path30" /><path
         style="display:inline;opacity:1;fill:#fffbe6;fill-opacity:1;stroke:#ffffff;stroke-width:0.209031;stroke-dasharray:none;stroke-opacity:1;filter:url(#filter35)"
         d="m 929.61939,269.05523 c 0.5414,-0.75382 0.5223,-1.21779 -0.083,-2.0052 -0.9385,-1.22146 -3.8523,-2.15159 -7.4433,-2.37605 -2.0636,-0.12898 -2.2471,-0.17584 -2.2471,-0.57379 0,-2.62923 -2.6684,-5.06144 -6.2234,-5.67255 l -1.5292,-0.26288 -0.1239,-0.84902 c -0.2775,-1.89971 -1.6578,-3.81658 -3.4247,-4.7559 -2.0386,-1.08374 -4.9673,-0.49365 -6.6433,1.33852 -0.9122,0.99719 -1.6439,2.65998 -1.773,4.02898 l -0.1076,1.14165 -1.0236,-0.42894 c -1.2308,-0.51568 -3.2381,-0.44361 -4.3212,0.15514 -1.004,0.555 -1.9539,1.61281 -2.2092,2.45996 -0.2043,0.67769 -0.27,0.72295 -0.8709,0.59951 -1.696,-0.34844 -3.9637,1.34412 -4.2282,3.15593 l -0.1234,0.8449 -1.2271,0.13988 c -2.3587,0.26887 -4.1542,1.7258 -3.8362,3.11292 l 0.1199,0.5233 h 23.452 23.4522 z"
         id="path31"
         transform="matrix(1.0784457,0,0,1.0784457,-71.07779,-20.460486)" /><path
         style="display:inline;opacity:1;fill:#fffbe6;fill-opacity:1;stroke:#ffffff;stroke-width:0.142025;stroke-dasharray:none;stroke-opacity:1;filter:url(#filter34)"
         d="m 859.00302,174.87313 c -2.29043,-0.59929 -3.63159,-3.30535 -2.87481,-5.80052 0.33345,-1.09939 1.48448,-2.36221 2.48475,-2.72604 0.7267,-0.26432 2.22824,-0.27227 2.76954,-0.0147 0.1779,0.0847 0.2375,0.0439 0.2376,-0.16295 3e-4,-0.6155 0.8331,-2.1783 1.6203,-3.04037 2.4488,-2.6817 6.3465,-2.69828 8.7763,-0.0374 0.4016,0.43982 0.9152,1.20095 1.1413,1.69138 l 0.411,0.8917 0.3975,-0.22509 c 1.3215,-0.74835 3.1899,0.35082 3.4702,2.04145 0.078,0.47001 0.1461,0.55734 0.4348,0.55734 1.0363,0 2.2511,0.86852 2.7767,1.98525 0.3714,0.78894 0.3943,2.17709 0.048,2.91939 -0.3347,0.7178 -0.8585,1.30601 -1.5009,1.68564 -0.5403,0.3193 -0.5876,0.32091 -10.111,0.34497 -5.3182,0.0134 -9.7961,-0.0355 -10.08141,-0.11015 z"
         id="path32" /><path
         id="path33"
         style="display:inline;opacity:1;fill:#fffbe6;fill-opacity:1;stroke:#ffffff;stroke-width:0.0865273;stroke-dasharray:none;stroke-opacity:1;filter:url(#filter33)"
         d="m 1001.137,156.11124 c -1.8884,0.0349 -3.5379,1.37339 -3.7227,3.09498 -0.03,0.27718 -0.069,0.50414 -0.088,0.50414 -0.019,0 -0.1535,-0.0684 -0.2991,-0.15221 -0.1683,-0.0969 -0.4617,-0.15317 -0.8061,-0.15446 -0.8964,-0.003 -1.436,0.51396 -1.5401,1.47733 -0.045,0.41983 -0.068,0.45931 -0.2656,0.46113 -0.2747,0.003 -0.9017,0.31217 -1.1543,0.56977 -0.2942,0.30018 -0.5881,1.0017 -0.6024,1.43829 -0.032,0.9801 0.325,1.64062 1.1687,2.1631 0.293,0.18145 2.1206,0.2377 7.1936,0.22066 2.2516,-0.008 3.3001,-0.0134 3.8792,-0.047 1.1139,0.0425 2.8899,0.0562 5.6534,0.047 4.1713,-0.014 4.2681,-0.0185 4.7529,-0.21444 h 5e-4 c 1.1566,-0.46735 1.5377,-1.50043 0.8205,-2.22363 l -0.278,-0.28064 0.1349,-0.40852 c 0.2004,-0.6069 0.1,-1.03796 -0.3534,-1.51411 -0.2352,-0.24717 -0.4935,-0.4195 -0.7265,-0.48377 l -0.3616,-0.0996 0.042,-0.57882 c 0.07,-0.95863 -0.1832,-1.70467 -0.8401,-2.47203 -0.7189,-0.83983 -1.5481,-1.25132 -2.695,-1.33701 -2.0425,-0.15258 -3.9058,1.24845 -4.1029,3.0848 -0.03,0.27719 -0.069,0.50414 -0.088,0.50414 -0.019,0 -0.153,-0.0684 -0.2986,-0.1522 -0.1683,-0.0969 -0.4617,-0.15318 -0.8061,-0.15447 -0.2627,-9.4e-4 -0.4939,0.0441 -0.6933,0.1307 -0.02,-0.77425 -0.2851,-1.41788 -0.8484,-2.07596 -0.7189,-0.83983 -1.5481,-1.25132 -2.695,-1.33701 -0.1276,-0.009 -0.2543,-0.0125 -0.3802,-0.0102 z"
         transform="matrix(1.2789846,0,0,1.2789846,-280.26058,-44.895168)" /><path
         id="path45"
         style="display:inline;opacity:1;fill:#fffbe6;fill-opacity:1;stroke:#ffffff;stroke-width:0.142025;stroke-dasharray:none;stroke-opacity:1;filter:url(#filter43)"
         d="m 790.9597,199.69522 c -1.58425,0.007 -3.17093,0.68136 -4.39533,2.02221 -0.78719,0.86207 -1.61994,2.42517 -1.62028,3.04067 -9e-5,0.20685 -0.0597,0.24765 -0.23767,0.16295 -0.54125,-0.25757 -2.04266,-0.24961 -2.76936,0.0147 -1.00027,0.36383 -2.15123,1.62668 -2.48468,2.72607 -0.75678,2.49517 0.58434,5.20084 2.87476,5.80013 0.28531,0.0746 4.76314,0.12373 10.08131,0.11033 2.00925,-0.005 3.40061,-0.0101 4.65986,-0.0164 0.21903,0.1073 0.44725,0.19879 0.68873,0.26197 0.28531,0.0746 4.76314,0.12317 10.0813,0.10977 9.5234,-0.0241 9.5709,-0.0253 10.1113,-0.34458 0.6424,-0.37963 1.1662,-0.96775 1.5009,-1.68555 0.3462,-0.7423 0.3234,-2.13064 -0.048,-2.91958 -0.5257,-1.11673 -1.7409,-1.98543 -2.7772,-1.98543 -0.2887,0 -0.3565,-0.0873 -0.4345,-0.55733 -0.2803,-1.69062 -2.149,-2.78979 -3.4705,-2.04144 l -0.3973,0.22519 -0.4107,-0.89171 c -0.2261,-0.49043 -0.7398,-1.25139 -1.1414,-1.69121 -2.42981,-2.66088 -6.32789,-2.64436 -8.77668,0.0373 -0.77545,0.84922 -1.59362,2.37632 -1.61821,3.01011 -0.67925,-1.08009 -2.0491,-1.632 -3.08557,-1.04505 l -0.39732,0.22462 -0.41127,-0.89171 c -0.22606,-0.49043 -0.73972,-1.25139 -1.14133,-1.69121 -1.21492,-1.33044 -2.79661,-1.99161 -4.38086,-1.98486 z" /><path
         style="display:inline;opacity:1;fill:#fffbe6;fill-opacity:1;stroke:#ffffff;stroke-width:0.133414;stroke-dasharray:none;stroke-opacity:1;filter:url(#filter39)"
         d="m 797.49656,81.820596 c 1.78335,-0.72059 2.3713,-2.31369 1.26545,-3.42878 l -0.42853,-0.43211 0.20793,-0.62979 c 0.30895,-0.93577 0.15375,-1.60096 -0.54484,-2.33512 -0.36264,-0.38111 -0.76115,-0.64616 -1.12049,-0.74525 l -0.55768,-0.15378 0.0654,-0.89252 c 0.10835,-1.47808 -0.28262,-2.62839 -1.29547,-3.81155 -1.10853,-1.29492 -2.38713,-1.92913 -4.15564,-2.06124 -3.14919,-0.23526 -6.02228,1.92486 -6.32616,4.75629 -0.0459,0.42738 -0.10703,0.77705 -0.13591,0.77705 -0.0289,0 -0.23613,-0.10576 -0.46053,-0.23503 -0.25953,-0.14949 -0.71185,-0.23617 -1.24292,-0.23816 -1.38224,-0.005 -2.2144,0.79315 -2.37504,2.27854 -0.07,0.64733 -0.10493,0.70796 -0.40937,0.71077 -0.42345,0.004 -1.39031,0.48099 -1.77971,0.87819 -0.45375,0.46283 -0.90674,1.54455 -0.92871,2.21773 -0.0493,1.51119 0.50092,2.52971 1.80188,3.33531 0.45183,0.27978 3.26971,0.36612 11.09154,0.33985 6.43163,-0.0216 6.58126,-0.0283 7.32879,-0.3304 z"
         id="path46"
         transform="matrix(-1,0,0,1,1486.541,148.08147)" /><path
         style="display:inline;opacity:1;fill:#fffbe6;fill-opacity:1;stroke:#ffffff;stroke-width:0.142025;stroke-dasharray:none;stroke-opacity:1;filter:url(#filter43)"
         d="m 497.65183,163.52617 c -2.29043,-0.59929 -3.63159,-3.30535 -2.87481,-5.80052 0.33345,-1.09939 1.48448,-2.36221 2.48475,-2.72604 0.7267,-0.26432 2.22825,-0.27227 2.7695,-0.0147 0.17799,0.0847 0.23755,0.0439 0.23764,-0.16295 3.4e-4,-0.6155 0.83312,-2.1783 1.62031,-3.04037 2.44879,-2.6817 6.34648,-2.69828 8.77632,-0.0374 0.40161,0.43982 0.91521,1.20095 1.14127,1.69138 l 0.41104,0.8917 0.39747,-0.22509 c 1.32147,-0.74835 3.18994,0.35082 3.47024,2.04145 0.078,0.47001 0.14608,0.55734 0.43478,0.55734 1.03627,0 2.25104,0.86852 2.77669,1.98525 0.3714,0.78894 0.39428,2.17709 0.0481,2.91939 -0.33471,0.7178 -0.85847,1.30601 -1.50091,1.68564 -0.54033,0.3193 -0.58757,0.32091 -10.11099,0.34497 -5.31817,0.0134 -9.79612,-0.0355 -10.08143,-0.11015 z"
         id="path1"
         transform="matrix(1.2961506,0,0,1.2961506,-150.17141,-46.40681)" /></g></g></svg>
